<svg xmlns="http://www.w3.org/2000/svg"  viewBox="0 0 48 48" width="420px" height="420px"><linearGradient id="SVGID_1_" x1="37.081" x2="5.793" y1="10.918" y2="42.206" gradientUnits="userSpaceOnUse"><stop offset="0" stop-color="#60e8fe"/><stop offset=".033" stop-color="#6ae9fe"/><stop offset=".197" stop-color="#97f0fe"/><stop offset=".362" stop-color="#bdf5ff"/><stop offset=".525" stop-color="#dafaff"/><stop offset=".687" stop-color="#eefdff"/><stop offset=".846" stop-color="#fbfeff"/><stop offset="1" stop-color="#fff"/></linearGradient><path fill="url(#SVGID_1_)" d="M24,5.499c-10.217,0-18.5,8.283-18.5,18.5c0,3.266,0.854,6.33,2.34,8.994l-2.301,8.238	c-0.21,0.75,0.481,1.442,1.232,1.232l8.242-2.3c2.662,1.484,5.723,2.336,8.987,2.336c10.217,0,18.5-8.283,18.5-18.5	S34.217,5.499,24,5.499z"/><line x1="24" x2="24" y1="14.5" y2="26.5" fill="none" stroke="#10cfe3" stroke-linecap="round" stroke-width="3"/><path fill="none" stroke="#10cfe3" stroke-linecap="round" stroke-linejoin="round" stroke-width="3" d="M41.129,31.001C42.013,28.842,42.5,26.478,42.5,24c0-10.217-8.283-18.5-18.5-18.5	c-2.858,0-5.565,0.648-7.981,1.806"/><path fill="none" stroke="#10cfe3" stroke-linecap="round" stroke-linejoin="round" stroke-width="3" d="M9.779,12.167C7.107,15.374,5.5,19.499,5.5,24c0,3.266,0.854,6.33,2.34,8.994l-2.301,8.238	c-0.21,0.75,0.481,1.442,1.232,1.232l8.242-2.3C17.675,41.648,20.736,42.5,24,42.5c4.745,0,9.073-1.787,12.348-4.724"/><circle cx="24" cy="33" r="2" fill="#10cfe3"/></svg>